<?xml version="1.0" encoding="us-ascii" standalone="no"?><svg xmlns="http://www.w3.org/2000/svg" xmlns:xlink="http://www.w3.org/1999/xlink" contentStyleType="text/css" height="9496px" preserveAspectRatio="none" style="width:8444px;height:9496px;background:#FFFFFF;" version="1.1" viewBox="0 0 8444 9496" width="8444px" zoomAndPan="magnify"><defs/><g><rect fill="#FFFFFF" height="120" style="stroke:#181818;stroke-width:4.0;" width="40" x="562" y="495.0625"/><rect fill="#FFFFFF" height="120" style="stroke:#181818;stroke-width:4.0;" width="40" x="1794" y="495.0625"/><rect fill="#FFFFFF" height="120" style="stroke:#181818;stroke-width:4.0;" width="40" x="1794" y="751.5625"/><rect fill="#FFFFFF" height="120" style="stroke:#181818;stroke-width:4.0;" width="40" x="1794" y="1968.625"/><rect fill="#FFFFFF" height="120" style="stroke:#181818;stroke-width:4.0;" width="40" x="1794" y="3235.75"/><rect fill="#FFFFFF" height="120" style="stroke:#181818;stroke-width:4.0;" width="40" x="1794" y="5947.8125"/><rect fill="#FFFFFF" height="120" style="stroke:#181818;stroke-width:4.0;" width="40" x="1794" y="8874.375"/><rect fill="#FFFFFF" height="120" style="stroke:#181818;stroke-width:4.0;" width="40" x="2734" y="751.5625"/><rect fill="#FFFFFF" height="120" style="stroke:#181818;stroke-width:4.0;" width="40" x="2734" y="1008.0625"/><rect fill="#FFFFFF" height="120" style="stroke:#181818;stroke-width:4.0;" width="40" x="2734" y="1264.5625"/><rect fill="#FFFFFF" height="244.5" style="stroke:#181818;stroke-width:4.0;" width="40" x="2734" y="1440.5625"/><rect fill="#FFFFFF" height="120" style="stroke:#181818;stroke-width:4.0;" width="40" x="2734" y="1968.625"/><rect fill="#FFFFFF" height="120" style="stroke:#181818;stroke-width:4.0;" width="40" x="2734" y="2664.1875"/><rect fill="#FFFFFF" height="120" style="stroke:#181818;stroke-width:4.0;" width="40" x="2734" y="3235.75"/><rect fill="#FFFFFF" height="120" style="stroke:#181818;stroke-width:4.0;" width="40" x="2734" y="3580.75"/><rect fill="#FFFFFF" height="120" style="stroke:#181818;stroke-width:4.0;" width="40" x="2734" y="4152.3125"/><rect fill="#FFFFFF" height="120" style="stroke:#181818;stroke-width:4.0;" width="40" x="2734" y="4665.3125"/><rect fill="#FFFFFF" height="120" style="stroke:#181818;stroke-width:4.0;" width="40" x="2734" y="5178.3125"/><rect fill="#FFFFFF" height="120" style="stroke:#181818;stroke-width:4.0;" width="40" x="2734" y="5434.8125"/><rect fill="#FFFFFF" height="120" style="stroke:#181818;stroke-width:4.0;" width="40" x="2734" y="5691.3125"/><rect fill="#FFFFFF" height="120" style="stroke:#181818;stroke-width:4.0;" width="40" x="2734" y="5947.8125"/><rect fill="#FFFFFF" height="120" style="stroke:#181818;stroke-width:4.0;" width="40" x="2734" y="6519.375"/><rect fill="#FFFFFF" height="244.5" style="stroke:#181818;stroke-width:4.0;" width="40" x="2734" y="6951.875"/><rect fill="#FFFFFF" height="120" style="stroke:#181818;stroke-width:4.0;" width="40" x="2734" y="7332.875"/><rect fill="#FFFFFF" height="120" style="stroke:#181818;stroke-width:4.0;" width="40" x="2734" y="7589.375"/><rect fill="#FFFFFF" height="244.5" style="stroke:#181818;stroke-width:4.0;" width="40" x="2734" y="8241.375"/><rect fill="#FFFFFF" height="120" style="stroke:#181818;stroke-width:4.0;" width="40" x="2734" y="8874.375"/><rect fill="#FFFFFF" height="120" style="stroke:#181818;stroke-width:4.0;" width="40" x="4010" y="2664.1875"/><rect fill="#FFFFFF" height="120" style="stroke:#181818;stroke-width:4.0;" width="40" x="4010" y="3580.75"/><rect fill="#FFFFFF" height="120" style="stroke:#181818;stroke-width:4.0;" width="40" x="4814" y="1008.0625"/><rect fill="#FFFFFF" height="120" style="stroke:#181818;stroke-width:4.0;" width="40" x="4814" y="1264.5625"/><rect fill="#FFFFFF" height="120" style="stroke:#181818;stroke-width:4.0;" width="40" x="5672" y="4152.3125"/><rect fill="#FFFFFF" height="120" style="stroke:#181818;stroke-width:4.0;" width="40" x="5672" y="4665.3125"/><rect fill="#FFFFFF" height="120" style="stroke:#181818;stroke-width:4.0;" width="40" x="5672" y="5178.3125"/><rect fill="#FFFFFF" height="120" style="stroke:#181818;stroke-width:4.0;" width="40" x="6414" y="5434.8125"/><rect fill="#FFFFFF" height="120" style="stroke:#181818;stroke-width:4.0;" width="40" x="7020" y="5691.3125"/><rect fill="#FFFFFF" height="120" style="stroke:#181818;stroke-width:4.0;" width="40" x="7020" y="7332.875"/><rect fill="#FFFFFF" height="120" style="stroke:#181818;stroke-width:4.0;" width="40" x="7756" y="6519.375"/><rect fill="#FFFFFF" height="120" style="stroke:#181818;stroke-width:4.0;" width="40" x="7756" y="7589.375"/><rect fill="none" height="7337.3125" style="stroke:#000000;stroke-width:4.4;" width="8362" x="40" y="1745.0625"/><rect fill="none" height="6112.75" style="stroke:#000000;stroke-width:4.4;" width="8282" x="80" y="2461.125"/><rect fill="none" height="5177.1875" style="stroke:#000000;stroke-width:4.4;" width="8202" x="120" y="3012.1875"/><rect fill="none" height="4120.625" style="stroke:#000000;stroke-width:4.4;" width="8122" x="160" y="3928.75"/><rect fill="none" height="1613.5625" style="stroke:#000000;stroke-width:4.4;" width="6888" x="1354" y="6295.8125"/><line style="stroke:#181818;stroke-width:2.0;stroke-dasharray:5.0,5.0;" x1="580" x2="580" y1="350.5625" y2="9150.375"/><line style="stroke:#181818;stroke-width:2.0;stroke-dasharray:5.0,5.0;" x1="1814" x2="1814" y1="350.5625" y2="9150.375"/><line style="stroke:#181818;stroke-width:2.0;stroke-dasharray:5.0,5.0;" x1="2752" x2="2752" y1="350.5625" y2="9150.375"/><line style="stroke:#181818;stroke-width:2.0;stroke-dasharray:5.0,5.0;" x1="4030" x2="4030" y1="350.5625" y2="9150.375"/><line style="stroke:#181818;stroke-width:2.0;stroke-dasharray:5.0,5.0;" x1="4834" x2="4834" y1="350.5625" y2="9150.375"/><line style="stroke:#181818;stroke-width:2.0;stroke-dasharray:5.0,5.0;" x1="5690" x2="5690" y1="350.5625" y2="9150.375"/><line style="stroke:#181818;stroke-width:2.0;stroke-dasharray:5.0,5.0;" x1="6434" x2="6434" y1="350.5625" y2="9150.375"/><line style="stroke:#181818;stroke-width:2.0;stroke-dasharray:5.0,5.0;" x1="7038" x2="7038" y1="350.5625" y2="9150.375"/><line style="stroke:#181818;stroke-width:2.0;stroke-dasharray:5.0,5.0;" x1="7774" x2="7774" y1="350.5625" y2="9150.375"/><text fill="#000000" font-family="sans-serif" font-size="72" lengthAdjust="spacing" text-decoration="underline" textLength="740" x="200" y="334.7422">:Network_Administrator</text><ellipse cx="582" cy="54" fill="#E2E2F0" rx="32" ry="32" style="stroke:#181818;stroke-width:2.0;"/><path d="M582,86 L582,194 M530,118 L634,118 M582,194 L530,254 M582,194 L634,254 " fill="none" style="stroke:#181818;stroke-width:2.0;"/><text fill="#000000" font-family="sans-serif" font-size="72" lengthAdjust="spacing" text-decoration="underline" textLength="740" x="200" y="9221.1172">:Network_Administrator</text><ellipse cx="582" cy="9270.9375" fill="#E2E2F0" rx="32" ry="32" style="stroke:#181818;stroke-width:2.0;"/><path d="M582,9302.9375 L582,9410.9375 M530,9334.9375 L634,9334.9375 M582,9410.9375 L530,9470.9375 M582,9410.9375 L634,9470.9375 " fill="none" style="stroke:#181818;stroke-width:2.0;"/><rect fill="#E2E2F0" height="146.5625" rx="10" ry="10" style="stroke:#181818;stroke-width:2.0;" width="520" x="1554" y="200"/><text fill="#000000" font-family="sans-serif" font-size="72" lengthAdjust="spacing" text-decoration="underline" textLength="464" x="1582" y="302.7422">:UI-Dashboard</text><rect fill="#E2E2F0" height="146.5625" rx="10" ry="10" style="stroke:#181818;stroke-width:2.0;" width="520" x="1554" y="9146.375"/><text fill="#000000" font-family="sans-serif" font-size="72" lengthAdjust="spacing" text-decoration="underline" textLength="464" x="1582" y="9249.1172">:UI-Dashboard</text><rect fill="#E2E2F0" height="146.5625" rx="10" ry="10" style="stroke:#181818;stroke-width:2.0;" width="484" x="2512" y="200"/><text fill="#000000" font-family="sans-serif" font-size="72" lengthAdjust="spacing" text-decoration="underline" textLength="428" x="2540" y="302.7422">:C-Simulation</text><rect fill="#E2E2F0" height="146.5625" rx="10" ry="10" style="stroke:#181818;stroke-width:2.0;" width="484" x="2512" y="9146.375"/><text fill="#000000" font-family="sans-serif" font-size="72" lengthAdjust="spacing" text-decoration="underline" textLength="428" x="2540" y="9249.1172">:C-Simulation</text><rect fill="#E2E2F0" height="146.5625" rx="10" ry="10" style="stroke:#181818;stroke-width:2.0;" width="384" x="3838" y="200"/><text fill="#000000" font-family="sans-serif" font-size="72" lengthAdjust="spacing" text-decoration="underline" textLength="328" x="3866" y="302.7422">:AI-Engine</text><rect fill="#E2E2F0" height="146.5625" rx="10" ry="10" style="stroke:#181818;stroke-width:2.0;" width="384" x="3838" y="9146.375"/><text fill="#000000" font-family="sans-serif" font-size="72" lengthAdjust="spacing" text-decoration="underline" textLength="328" x="3866" y="9249.1172">:AI-Engine</text><rect fill="#E2E2F0" height="146.5625" rx="10" ry="10" style="stroke:#181818;stroke-width:2.0;" width="504" x="4582" y="200"/><text fill="#000000" font-family="sans-serif" font-size="72" lengthAdjust="spacing" text-decoration="underline" textLength="448" x="4610" y="302.7422">:Configuration</text><rect fill="#E2E2F0" height="146.5625" rx="10" ry="10" style="stroke:#181818;stroke-width:2.0;" width="504" x="4582" y="9146.375"/><text fill="#000000" font-family="sans-serif" font-size="72" lengthAdjust="spacing" text-decoration="underline" textLength="448" x="4610" y="9249.1172">:Configuration</text><rect fill="#E2E2F0" height="146.5625" rx="10" ry="10" style="stroke:#181818;stroke-width:2.0;" width="492" x="5446" y="200"/><text fill="#000000" font-family="sans-serif" font-size="72" lengthAdjust="spacing" text-decoration="underline" textLength="436" x="5474" y="302.7422">:NetworkFlow</text><rect fill="#E2E2F0" height="146.5625" rx="10" ry="10" style="stroke:#181818;stroke-width:2.0;" width="492" x="5446" y="9146.375"/><text fill="#000000" font-family="sans-serif" font-size="72" lengthAdjust="spacing" text-decoration="underline" textLength="436" x="5474" y="9249.1172">:NetworkFlow</text><rect fill="#E2E2F0" height="146.5625" rx="10" ry="10" style="stroke:#181818;stroke-width:2.0;" width="272" x="6298" y="200"/><text fill="#000000" font-family="sans-serif" font-size="72" lengthAdjust="spacing" text-decoration="underline" textLength="216" x="6326" y="302.7422">:Attack</text><rect fill="#E2E2F0" height="146.5625" rx="10" ry="10" style="stroke:#181818;stroke-width:2.0;" width="272" x="6298" y="9146.375"/><text fill="#000000" font-family="sans-serif" font-size="72" lengthAdjust="spacing" text-decoration="underline" textLength="216" x="6326" y="9249.1172">:Attack</text><rect fill="#E2E2F0" height="146.5625" rx="10" ry="10" style="stroke:#181818;stroke-width:2.0;" width="220" x="6930" y="200"/><text fill="#000000" font-family="sans-serif" font-size="72" lengthAdjust="spacing" text-decoration="underline" textLength="164" x="6958" y="302.7422">:Alert</text><rect fill="#E2E2F0" height="146.5625" rx="10" ry="10" style="stroke:#181818;stroke-width:2.0;" width="220" x="6930" y="9146.375"/><text fill="#000000" font-family="sans-serif" font-size="72" lengthAdjust="spacing" text-decoration="underline" textLength="164" x="6958" y="9249.1172">:Alert</text><rect fill="#E2E2F0" height="146.5625" rx="10" ry="10" style="stroke:#181818;stroke-width:2.0;" width="532" x="7510" y="200"/><text fill="#000000" font-family="sans-serif" font-size="72" lengthAdjust="spacing" text-decoration="underline" textLength="476" x="7538" y="302.7422">:Email_Service</text><rect fill="#E2E2F0" height="146.5625" rx="10" ry="10" style="stroke:#181818;stroke-width:2.0;" width="532" x="7510" y="9146.375"/><text fill="#000000" font-family="sans-serif" font-size="72" lengthAdjust="spacing" text-decoration="underline" textLength="476" x="7538" y="9249.1172">:Email_Service</text><rect fill="#FFFFFF" height="120" style="stroke:#181818;stroke-width:4.0;" width="40" x="562" y="495.0625"/><rect fill="#FFFFFF" height="120" style="stroke:#181818;stroke-width:4.0;" width="40" x="1794" y="495.0625"/><rect fill="#FFFFFF" height="120" style="stroke:#181818;stroke-width:4.0;" width="40" x="1794" y="751.5625"/><rect fill="#FFFFFF" height="120" style="stroke:#181818;stroke-width:4.0;" width="40" x="1794" y="1968.625"/><rect fill="#FFFFFF" height="120" style="stroke:#181818;stroke-width:4.0;" width="40" x="1794" y="3235.75"/><rect fill="#FFFFFF" height="120" style="stroke:#181818;stroke-width:4.0;" width="40" x="1794" y="5947.8125"/><rect fill="#FFFFFF" height="120" style="stroke:#181818;stroke-width:4.0;" width="40" x="1794" y="8874.375"/><rect fill="#FFFFFF" height="120" style="stroke:#181818;stroke-width:4.0;" width="40" x="2734" y="751.5625"/><rect fill="#FFFFFF" height="120" style="stroke:#181818;stroke-width:4.0;" width="40" x="2734" y="1008.0625"/><rect fill="#FFFFFF" height="120" style="stroke:#181818;stroke-width:4.0;" width="40" x="2734" y="1264.5625"/><rect fill="#FFFFFF" height="244.5" style="stroke:#181818;stroke-width:4.0;" width="40" x="2734" y="1440.5625"/><rect fill="#FFFFFF" height="120" style="stroke:#181818;stroke-width:4.0;" width="40" x="2734" y="1968.625"/><rect fill="#FFFFFF" height="120" style="stroke:#181818;stroke-width:4.0;" width="40" x="2734" y="2664.1875"/><rect fill="#FFFFFF" height="120" style="stroke:#181818;stroke-width:4.0;" width="40" x="2734" y="3235.75"/><rect fill="#FFFFFF" height="120" style="stroke:#181818;stroke-width:4.0;" width="40" x="2734" y="3580.75"/><rect fill="#FFFFFF" height="120" style="stroke:#181818;stroke-width:4.0;" width="40" x="2734" y="4152.3125"/><rect fill="#FFFFFF" height="120" style="stroke:#181818;stroke-width:4.0;" width="40" x="2734" y="4665.3125"/><rect fill="#FFFFFF" height="120" style="stroke:#181818;stroke-width:4.0;" width="40" x="2734" y="5178.3125"/><rect fill="#FFFFFF" height="120" style="stroke:#181818;stroke-width:4.0;" width="40" x="2734" y="5434.8125"/><rect fill="#FFFFFF" height="120" style="stroke:#181818;stroke-width:4.0;" width="40" x="2734" y="5691.3125"/><rect fill="#FFFFFF" height="120" style="stroke:#181818;stroke-width:4.0;" width="40" x="2734" y="5947.8125"/><rect fill="#FFFFFF" height="120" style="stroke:#181818;stroke-width:4.0;" width="40" x="2734" y="6519.375"/><rect fill="#FFFFFF" height="244.5" style="stroke:#181818;stroke-width:4.0;" width="40" x="2734" y="6951.875"/><rect fill="#FFFFFF" height="120" style="stroke:#181818;stroke-width:4.0;" width="40" x="2734" y="7332.875"/><rect fill="#FFFFFF" height="120" style="stroke:#181818;stroke-width:4.0;" width="40" x="2734" y="7589.375"/><rect fill="#FFFFFF" height="244.5" style="stroke:#181818;stroke-width:4.0;" width="40" x="2734" y="8241.375"/><rect fill="#FFFFFF" height="120" style="stroke:#181818;stroke-width:4.0;" width="40" x="2734" y="8874.375"/><rect fill="#FFFFFF" height="120" style="stroke:#181818;stroke-width:4.0;" width="40" x="4010" y="2664.1875"/><rect fill="#FFFFFF" height="120" style="stroke:#181818;stroke-width:4.0;" width="40" x="4010" y="3580.75"/><rect fill="#FFFFFF" height="120" style="stroke:#181818;stroke-width:4.0;" width="40" x="4814" y="1008.0625"/><rect fill="#FFFFFF" height="120" style="stroke:#181818;stroke-width:4.0;" width="40" x="4814" y="1264.5625"/><rect fill="#FFFFFF" height="120" style="stroke:#181818;stroke-width:4.0;" width="40" x="5672" y="4152.3125"/><rect fill="#FFFFFF" height="120" style="stroke:#181818;stroke-width:4.0;" width="40" x="5672" y="4665.3125"/><rect fill="#FFFFFF" height="120" style="stroke:#181818;stroke-width:4.0;" width="40" x="5672" y="5178.3125"/><rect fill="#FFFFFF" height="120" style="stroke:#181818;stroke-width:4.0;" width="40" x="6414" y="5434.8125"/><rect fill="#FFFFFF" height="120" style="stroke:#181818;stroke-width:4.0;" width="40" x="7020" y="5691.3125"/><rect fill="#FFFFFF" height="120" style="stroke:#181818;stroke-width:4.0;" width="40" x="7020" y="7332.875"/><rect fill="#FFFFFF" height="120" style="stroke:#181818;stroke-width:4.0;" width="40" x="7756" y="6519.375"/><rect fill="#FFFFFF" height="120" style="stroke:#181818;stroke-width:4.0;" width="40" x="7756" y="7589.375"/><polygon fill="#181818" points="1746,479.0625,1786,495.0625,1746,511.0625,1762,495.0625" style="stroke:#181818;stroke-width:4.0;"/><line style="stroke:#181818;stroke-width:8.0;" x1="602" x2="1770" y1="495.0625" y2="495.0625"/><text fill="#000000" font-family="sans-serif" font-size="64" font-weight="bold" lengthAdjust="spacing" textLength="36" x="630" y="473">1</text><text fill="#000000" font-family="sans-serif" font-size="64" lengthAdjust="spacing" textLength="1084" x="682" y="473">: click_btn_Trigger_Network_Analysis()</text><polygon fill="#181818" points="2686,735.5625,2726,751.5625,2686,767.5625,2702,751.5625" style="stroke:#181818;stroke-width:4.0;"/><line style="stroke:#181818;stroke-width:8.0;" x1="1834" x2="2710" y1="751.5625" y2="751.5625"/><text fill="#000000" font-family="sans-serif" font-size="64" font-weight="bold" lengthAdjust="spacing" textLength="36" x="1862" y="729.5">2</text><text fill="#000000" font-family="sans-serif" font-size="64" lengthAdjust="spacing" textLength="508" x="1914" y="729.5">: start_simulation()</text><polygon fill="#181818" points="4766,992.0625,4806,1008.0625,4766,1024.0625,4782,1008.0625" style="stroke:#181818;stroke-width:4.0;"/><line style="stroke:#181818;stroke-width:8.0;" x1="2774" x2="4790" y1="1008.0625" y2="1008.0625"/><text fill="#000000" font-family="sans-serif" font-size="64" font-weight="bold" lengthAdjust="spacing" textLength="36" x="2802" y="986">3</text><text fill="#000000" font-family="sans-serif" font-size="64" lengthAdjust="spacing" textLength="484" x="2854" y="986">: select(csv_path)</text><polygon fill="#181818" points="4766,1248.5625,4806,1264.5625,4766,1280.5625,4782,1264.5625" style="stroke:#181818;stroke-width:4.0;"/><line style="stroke:#181818;stroke-width:8.0;" x1="2774" x2="4790" y1="1264.5625" y2="1264.5625"/><text fill="#000000" font-family="sans-serif" font-size="64" font-weight="bold" lengthAdjust="spacing" textLength="36" x="2802" y="1242.5">4</text><text fill="#000000" font-family="sans-serif" font-size="64" lengthAdjust="spacing" textLength="384" x="2854" y="1242.5">: select(delay)</text><polygon fill="#FFFFFF" points="8394,1424.5625,8434,1440.5625,8394,1456.5625,8410,1440.5625" style="stroke:#FFFFFF;stroke-width:4.0;"/><line style="stroke:#FFFFFF;stroke-width:8.0;" x1="2774" x2="8418" y1="1440.5625" y2="1440.5625"/><line style="stroke:#181818;stroke-width:8.0;" x1="2774" x2="2942" y1="1577.0625" y2="1577.0625"/><line style="stroke:#181818;stroke-width:8.0;" x1="2942" x2="2942" y1="1577.0625" y2="1629.0625"/><line style="stroke:#181818;stroke-width:8.0;" x1="2778" x2="2942" y1="1629.0625" y2="1629.0625"/><polygon fill="#181818" points="2818,1613.0625,2778,1629.0625,2818,1645.0625,2802,1629.0625" style="stroke:#181818;stroke-width:4.0;"/><text fill="#000000" font-family="sans-serif" font-size="64" font-weight="bold" lengthAdjust="spacing" textLength="36" x="2802" y="1555">5</text><text fill="#000000" font-family="sans-serif" font-size="64" lengthAdjust="spacing" textLength="320" x="2854" y="1555">: load_csv()</text><polygon fill="#FFFFFF" points="8394,1669.0625,8434,1685.0625,8394,1701.0625,8410,1685.0625" style="stroke:#FFFFFF;stroke-width:4.0;"/><line style="stroke:#FFFFFF;stroke-width:8.0;" x1="2754" x2="8418" y1="1685.0625" y2="1685.0625"/><path d="M40,1745.0625 L304,1745.0625 L304,1803.625 L264,1843.625 L40,1843.625 L40,1745.0625 " fill="#EEEEEE" style="stroke:#000000;stroke-width:6.0;"/><rect fill="none" height="7337.3125" style="stroke:#000000;stroke-width:4.4;" width="8362" x="40" y="1745.0625"/><text fill="#000000" font-family="sans-serif" font-size="72" font-weight="bold" lengthAdjust="spacing" textLength="84" x="100" y="1823.8047">alt</text><text fill="#000000" font-family="sans-serif" font-size="64" font-weight="bold" lengthAdjust="spacing" textLength="488" x="364" y="1819.5">[CSV not found]</text><polygon fill="#181818" points="1878,1952.625,1838,1968.625,1878,1984.625,1862,1968.625" style="stroke:#181818;stroke-width:4.0;"/><line style="stroke:#181818;stroke-width:8.0;" x1="1854" x2="2730" y1="1968.625" y2="1968.625"/><text fill="#000000" font-family="sans-serif" font-size="64" font-weight="bold" lengthAdjust="spacing" textLength="36" x="1902" y="1946.5625">6</text><text fill="#000000" font-family="sans-serif" font-size="64" lengthAdjust="spacing" textLength="764" x="1954" y="1946.5625">: error(CSV_NOT_FOUND)</text><polygon fill="#FFFFFF" points="6992,2128.625,7032,2144.625,6992,2160.625,7008,2144.625" style="stroke:#FFFFFF;stroke-width:4.0;"/><line style="stroke:#FFFFFF;stroke-width:8.0;" x1="1814" x2="7016" y1="2144.625" y2="2144.625"/><line style="stroke:#000000;stroke-width:4.0;stroke-dasharray:2.0,2.0;" x1="40" x2="8402" y1="2180.625" y2="2180.625"/><text fill="#000000" font-family="sans-serif" font-size="64" font-weight="bold" lengthAdjust="spacing" textLength="164" x="60" y="2247.0625">[else]</text><polygon fill="#FFFFFF" points="6992,2273.125,7032,2289.125,6992,2305.125,7008,2289.125" style="stroke:#FFFFFF;stroke-width:4.0;"/><line style="stroke:#FFFFFF;stroke-width:8.0;" x1="1814" x2="7016" y1="2289.125" y2="2289.125"/><polygon fill="#FFFFFF" points="6992,2329.125,7032,2345.125,6992,2361.125,7008,2345.125" style="stroke:#FFFFFF;stroke-width:4.0;"/><line style="stroke:#FFFFFF;stroke-width:8.0;" x1="1814" x2="7016" y1="2345.125" y2="2345.125"/><polygon fill="#FFFFFF" points="6992,2385.125,7032,2401.125,6992,2417.125,7008,2401.125" style="stroke:#FFFFFF;stroke-width:4.0;"/><line style="stroke:#FFFFFF;stroke-width:8.0;" x1="1814" x2="7016" y1="2401.125" y2="2401.125"/><path d="M80,2461.125 L412,2461.125 L412,2519.6875 L372,2559.6875 L80,2559.6875 L80,2461.125 " fill="#EEEEEE" style="stroke:#000000;stroke-width:6.0;"/><rect fill="none" height="6112.75" style="stroke:#000000;stroke-width:4.4;" width="8282" x="80" y="2461.125"/><text fill="#000000" font-family="sans-serif" font-size="72" font-weight="bold" lengthAdjust="spacing" textLength="152" x="140" y="2539.8672">loop</text><polygon fill="#181818" points="3962,2648.1875,4002,2664.1875,3962,2680.1875,3978,2664.1875" style="stroke:#181818;stroke-width:4.0;"/><line style="stroke:#181818;stroke-width:8.0;" x1="2774" x2="3986" y1="2664.1875" y2="2664.1875"/><text fill="#000000" font-family="sans-serif" font-size="64" font-weight="bold" lengthAdjust="spacing" textLength="36" x="2802" y="2642.125">7</text><text fill="#000000" font-family="sans-serif" font-size="64" lengthAdjust="spacing" textLength="660" x="2854" y="2642.125">: predict(feature_vector)</text><polygon fill="#FFFFFF" points="6992,2824.1875,7032,2840.1875,6992,2856.1875,7008,2840.1875" style="stroke:#FFFFFF;stroke-width:4.0;"/><line style="stroke:#FFFFFF;stroke-width:8.0;" x1="1814" x2="7016" y1="2840.1875" y2="2840.1875"/><polygon fill="#FFFFFF" points="6992,2880.1875,7032,2896.1875,6992,2912.1875,7008,2896.1875" style="stroke:#FFFFFF;stroke-width:4.0;"/><line style="stroke:#FFFFFF;stroke-width:8.0;" x1="1814" x2="7016" y1="2896.1875" y2="2896.1875"/><polygon fill="#FFFFFF" points="6992,2936.1875,7032,2952.1875,6992,2968.1875,7008,2952.1875" style="stroke:#FFFFFF;stroke-width:4.0;"/><line style="stroke:#FFFFFF;stroke-width:8.0;" x1="1814" x2="7016" y1="2952.1875" y2="2952.1875"/><path d="M120,3012.1875 L384,3012.1875 L384,3070.75 L344,3110.75 L120,3110.75 L120,3012.1875 " fill="#EEEEEE" style="stroke:#000000;stroke-width:6.0;"/><rect fill="none" height="5177.1875" style="stroke:#000000;stroke-width:4.4;" width="8202" x="120" y="3012.1875"/><text fill="#000000" font-family="sans-serif" font-size="72" font-weight="bold" lengthAdjust="spacing" textLength="84" x="180" y="3090.9297">alt</text><text fill="#000000" font-family="sans-serif" font-size="64" font-weight="bold" lengthAdjust="spacing" textLength="688" x="444" y="3086.625">[AI engine unavailable]</text><polygon fill="#181818" points="1878,3219.75,1838,3235.75,1878,3251.75,1862,3235.75" style="stroke:#181818;stroke-width:4.0;"/><line style="stroke:#181818;stroke-width:8.0;" x1="1854" x2="2730" y1="3235.75" y2="3235.75"/><text fill="#000000" font-family="sans-serif" font-size="64" font-weight="bold" lengthAdjust="spacing" textLength="36" x="1902" y="3213.6875">8</text><text fill="#000000" font-family="sans-serif" font-size="64" lengthAdjust="spacing" textLength="792" x="1954" y="3213.6875">: error(AI_ENGINE_ERROR)</text><line style="stroke:#000000;stroke-width:4.0;stroke-dasharray:2.0,2.0;" x1="120" x2="8322" y1="3391.75" y2="3391.75"/><text fill="#000000" font-family="sans-serif" font-size="64" font-weight="bold" lengthAdjust="spacing" textLength="164" x="140" y="3458.1875">[else]</text><polygon fill="#181818" points="2818,3564.75,2778,3580.75,2818,3596.75,2802,3580.75" style="stroke:#181818;stroke-width:4.0;"/><line style="stroke:#181818;stroke-width:8.0;stroke-dasharray:2.0,2.0;" x1="2794" x2="4006" y1="3580.75" y2="3580.75"/><text fill="#000000" font-family="sans-serif" font-size="64" font-weight="bold" lengthAdjust="spacing" textLength="36" x="2842" y="3558.6875">9</text><text fill="#000000" font-family="sans-serif" font-size="64" lengthAdjust="spacing" textLength="540" x="2894" y="3558.6875">: return_prediction()</text><polygon fill="#FFFFFF" points="6992,3740.75,7032,3756.75,6992,3772.75,7008,3756.75" style="stroke:#FFFFFF;stroke-width:4.0;"/><line style="stroke:#FFFFFF;stroke-width:8.0;" x1="1814" x2="7016" y1="3756.75" y2="3756.75"/><polygon fill="#FFFFFF" points="6992,3796.75,7032,3812.75,6992,3828.75,7008,3812.75" style="stroke:#FFFFFF;stroke-width:4.0;"/><line style="stroke:#FFFFFF;stroke-width:8.0;" x1="1814" x2="7016" y1="3812.75" y2="3812.75"/><polygon fill="#FFFFFF" points="6992,3852.75,7032,3868.75,6992,3884.75,7008,3868.75" style="stroke:#FFFFFF;stroke-width:4.0;"/><line style="stroke:#FFFFFF;stroke-width:8.0;" x1="1814" x2="7016" y1="3868.75" y2="3868.75"/><path d="M160,3928.75 L424,3928.75 L424,3987.3125 L384,4027.3125 L160,4027.3125 L160,3928.75 " fill="#EEEEEE" style="stroke:#000000;stroke-width:6.0;"/><rect fill="none" height="4120.625" style="stroke:#000000;stroke-width:4.4;" width="8122" x="160" y="3928.75"/><text fill="#000000" font-family="sans-serif" font-size="72" font-weight="bold" lengthAdjust="spacing" textLength="84" x="220" y="4007.4922">alt</text><text fill="#000000" font-family="sans-serif" font-size="64" font-weight="bold" lengthAdjust="spacing" textLength="816" x="484" y="4003.1875">[predictedLabel = BENIGN]</text><polygon fill="#181818" points="5624,4136.3125,5664,4152.3125,5624,4168.3125,5640,4152.3125" style="stroke:#181818;stroke-width:4.0;"/><line style="stroke:#181818;stroke-width:8.0;" x1="2774" x2="5648" y1="4152.3125" y2="4152.3125"/><text fill="#000000" font-family="sans-serif" font-size="64" font-weight="bold" lengthAdjust="spacing" textLength="72" x="2802" y="4130.25">10</text><text fill="#000000" font-family="sans-serif" font-size="64" lengthAdjust="spacing" textLength="736" x="2890" y="4130.25">: insert(networkFlow fields)</text><polygon fill="#FFFFFF" points="6992,4312.3125,7032,4328.3125,6992,4344.3125,7008,4328.3125" style="stroke:#FFFFFF;stroke-width:4.0;"/><line style="stroke:#FFFFFF;stroke-width:8.0;" x1="1814" x2="7016" y1="4328.3125" y2="4328.3125"/><polygon fill="#FFFFFF" points="6992,4368.3125,7032,4384.3125,6992,4400.3125,7008,4384.3125" style="stroke:#FFFFFF;stroke-width:4.0;"/><line style="stroke:#FFFFFF;stroke-width:8.0;" x1="1814" x2="7016" y1="4384.3125" y2="4384.3125"/><polygon fill="#FFFFFF" points="6992,4424.3125,7032,4440.3125,6992,4456.3125,7008,4440.3125" style="stroke:#FFFFFF;stroke-width:4.0;"/><line style="stroke:#FFFFFF;stroke-width:8.0;" x1="1814" x2="7016" y1="4440.3125" y2="4440.3125"/><line style="stroke:#000000;stroke-width:4.0;stroke-dasharray:2.0,2.0;" x1="160" x2="8282" y1="4476.3125" y2="4476.3125"/><text fill="#000000" font-family="sans-serif" font-size="64" font-weight="bold" lengthAdjust="spacing" textLength="912" x="180" y="4542.75">[predictedLabel = UNKNOWN]</text><polygon fill="#181818" points="5624,4649.3125,5664,4665.3125,5624,4681.3125,5640,4665.3125" style="stroke:#181818;stroke-width:4.0;"/><line style="stroke:#181818;stroke-width:8.0;" x1="2774" x2="5648" y1="4665.3125" y2="4665.3125"/><text fill="#000000" font-family="sans-serif" font-size="64" font-weight="bold" lengthAdjust="spacing" textLength="72" x="2802" y="4643.25">11</text><text fill="#000000" font-family="sans-serif" font-size="64" lengthAdjust="spacing" textLength="1252" x="2890" y="4643.25">: insert(networkFlow fields, diagnostics fields)</text><polygon fill="#FFFFFF" points="6992,4825.3125,7032,4841.3125,6992,4857.3125,7008,4841.3125" style="stroke:#FFFFFF;stroke-width:4.0;"/><line style="stroke:#FFFFFF;stroke-width:8.0;" x1="1814" x2="7016" y1="4841.3125" y2="4841.3125"/><polygon fill="#FFFFFF" points="6992,4881.3125,7032,4897.3125,6992,4913.3125,7008,4897.3125" style="stroke:#FFFFFF;stroke-width:4.0;"/><line style="stroke:#FFFFFF;stroke-width:8.0;" x1="1814" x2="7016" y1="4897.3125" y2="4897.3125"/><polygon fill="#FFFFFF" points="6992,4937.3125,7032,4953.3125,6992,4969.3125,7008,4953.3125" style="stroke:#FFFFFF;stroke-width:4.0;"/><line style="stroke:#FFFFFF;stroke-width:8.0;" x1="1814" x2="7016" y1="4953.3125" y2="4953.3125"/><line style="stroke:#000000;stroke-width:4.0;stroke-dasharray:2.0,2.0;" x1="160" x2="8282" y1="4989.3125" y2="4989.3125"/><text fill="#000000" font-family="sans-serif" font-size="64" font-weight="bold" lengthAdjust="spacing" textLength="832" x="180" y="5055.75">[predictedLabel != BENIGN]</text><polygon fill="#181818" points="5624,5162.3125,5664,5178.3125,5624,5194.3125,5640,5178.3125" style="stroke:#181818;stroke-width:4.0;"/><line style="stroke:#181818;stroke-width:8.0;" x1="2774" x2="5648" y1="5178.3125" y2="5178.3125"/><text fill="#000000" font-family="sans-serif" font-size="64" font-weight="bold" lengthAdjust="spacing" textLength="72" x="2802" y="5156.25">12</text><text fill="#000000" font-family="sans-serif" font-size="64" lengthAdjust="spacing" textLength="736" x="2890" y="5156.25">: insert(networkFlow fields)</text><polygon fill="#181818" points="6366,5418.8125,6406,5434.8125,6366,5450.8125,6382,5434.8125" style="stroke:#181818;stroke-width:4.0;"/><line style="stroke:#181818;stroke-width:8.0;" x1="2774" x2="6390" y1="5434.8125" y2="5434.8125"/><text fill="#000000" font-family="sans-serif" font-size="64" font-weight="bold" lengthAdjust="spacing" textLength="72" x="2802" y="5412.75">13</text><text fill="#000000" font-family="sans-serif" font-size="64" lengthAdjust="spacing" textLength="448" x="2890" y="5412.75">: select(severity)</text><polygon fill="#181818" points="6972,5675.3125,7012,5691.3125,6972,5707.3125,6988,5691.3125" style="stroke:#181818;stroke-width:4.0;"/><line style="stroke:#181818;stroke-width:8.0;" x1="2774" x2="6996" y1="5691.3125" y2="5691.3125"/><text fill="#000000" font-family="sans-serif" font-size="64" font-weight="bold" lengthAdjust="spacing" textLength="72" x="2802" y="5669.25">14</text><text fill="#000000" font-family="sans-serif" font-size="64" lengthAdjust="spacing" textLength="224" x="2890" y="5669.25">: insert()</text><polygon fill="#181818" points="1878,5931.8125,1838,5947.8125,1878,5963.8125,1862,5947.8125" style="stroke:#181818;stroke-width:4.0;"/><line style="stroke:#181818;stroke-width:8.0;" x1="1854" x2="2730" y1="5947.8125" y2="5947.8125"/><text fill="#000000" font-family="sans-serif" font-size="64" font-weight="bold" lengthAdjust="spacing" textLength="72" x="1902" y="5925.75">15</text><text fill="#000000" font-family="sans-serif" font-size="64" lengthAdjust="spacing" textLength="388" x="1990" y="5925.75">: display(alert)</text><polygon fill="#FFFFFF" points="6992,6107.8125,7032,6123.8125,6992,6139.8125,7008,6123.8125" style="stroke:#FFFFFF;stroke-width:4.0;"/><line style="stroke:#FFFFFF;stroke-width:8.0;" x1="1814" x2="7016" y1="6123.8125" y2="6123.8125"/><polygon fill="#FFFFFF" points="6992,6163.8125,7032,6179.8125,6992,6195.8125,7008,6179.8125" style="stroke:#FFFFFF;stroke-width:4.0;"/><line style="stroke:#FFFFFF;stroke-width:8.0;" x1="1814" x2="7016" y1="6179.8125" y2="6179.8125"/><polygon fill="#FFFFFF" points="6992,6219.8125,7032,6235.8125,6992,6251.8125,7008,6235.8125" style="stroke:#FFFFFF;stroke-width:4.0;"/><line style="stroke:#FFFFFF;stroke-width:8.0;" x1="1814" x2="7016" y1="6235.8125" y2="6235.8125"/><path d="M1354,6295.8125 L1618,6295.8125 L1618,6354.375 L1578,6394.375 L1354,6394.375 L1354,6295.8125 " fill="#EEEEEE" style="stroke:#000000;stroke-width:6.0;"/><rect fill="none" height="1613.5625" style="stroke:#000000;stroke-width:4.4;" width="6888" x="1354" y="6295.8125"/><text fill="#000000" font-family="sans-serif" font-size="72" font-weight="bold" lengthAdjust="spacing" textLength="84" x="1414" y="6374.5547">alt</text><text fill="#000000" font-family="sans-serif" font-size="64" font-weight="bold" lengthAdjust="spacing" textLength="656" x="1678" y="6370.25">[Severity = CRITICAL]</text><polygon fill="#181818" points="7708,6503.375,7748,6519.375,7708,6535.375,7724,6519.375" style="stroke:#181818;stroke-width:4.0;"/><line style="stroke:#181818;stroke-width:8.0;" x1="2774" x2="7732" y1="6519.375" y2="6519.375"/><text fill="#000000" font-family="sans-serif" font-size="64" font-weight="bold" lengthAdjust="spacing" textLength="72" x="2802" y="6497.3125">16</text><text fill="#000000" font-family="sans-serif" font-size="64" lengthAdjust="spacing" textLength="696" x="2890" y="6497.3125">: send_immediate_alert()</text><line style="stroke:#000000;stroke-width:4.0;stroke-dasharray:2.0,2.0;" x1="1354" x2="8242" y1="6675.375" y2="6675.375"/><text fill="#000000" font-family="sans-serif" font-size="64" font-weight="bold" lengthAdjust="spacing" textLength="516" x="1374" y="6741.8125">[Severity = HIGH]</text><polygon fill="#FFFFFF" points="6992,6767.875,7032,6783.875,6992,6799.875,7008,6783.875" style="stroke:#FFFFFF;stroke-width:4.0;"/><line style="stroke:#FFFFFF;stroke-width:8.0;" x1="1814" x2="7016" y1="6783.875" y2="6783.875"/><polygon fill="#FFFFFF" points="6992,6823.875,7032,6839.875,6992,6855.875,7008,6839.875" style="stroke:#FFFFFF;stroke-width:4.0;"/><line style="stroke:#FFFFFF;stroke-width:8.0;" x1="1814" x2="7016" y1="6839.875" y2="6839.875"/><polygon fill="#FFFFFF" points="6992,6879.875,7032,6895.875,6992,6911.875,7008,6895.875" style="stroke:#FFFFFF;stroke-width:4.0;"/><line style="stroke:#FFFFFF;stroke-width:8.0;" x1="1814" x2="7016" y1="6895.875" y2="6895.875"/><polygon fill="#FFFFFF" points="5644,6935.875,5684,6951.875,5644,6967.875,5660,6951.875" style="stroke:#FFFFFF;stroke-width:4.0;"/><line style="stroke:#FFFFFF;stroke-width:8.0;" x1="2774" x2="5668" y1="6951.875" y2="6951.875"/><line style="stroke:#181818;stroke-width:8.0;" x1="2774" x2="2942" y1="7088.375" y2="7088.375"/><line style="stroke:#181818;stroke-width:8.0;" x1="2942" x2="2942" y1="7088.375" y2="7140.375"/><line style="stroke:#181818;stroke-width:8.0;" x1="2778" x2="2942" y1="7140.375" y2="7140.375"/><polygon fill="#181818" points="2818,7124.375,2778,7140.375,2818,7156.375,2802,7140.375" style="stroke:#181818;stroke-width:4.0;"/><text fill="#000000" font-family="sans-serif" font-size="64" font-weight="bold" lengthAdjust="spacing" textLength="72" x="2802" y="7066.3125">17</text><text fill="#000000" font-family="sans-serif" font-size="64" lengthAdjust="spacing" textLength="1092" x="2890" y="7066.3125">: start_unacknowledged_timer(5minute)</text><polygon fill="#FFFFFF" points="5644,7180.375,5684,7196.375,5644,7212.375,5660,7196.375" style="stroke:#FFFFFF;stroke-width:4.0;"/><line style="stroke:#FFFFFF;stroke-width:8.0;" x1="2754" x2="5668" y1="7196.375" y2="7196.375"/><polygon fill="#181818" points="6972,7316.875,7012,7332.875,6972,7348.875,6988,7332.875" style="stroke:#181818;stroke-width:4.0;"/><line style="stroke:#181818;stroke-width:8.0;" x1="2774" x2="6996" y1="7332.875" y2="7332.875"/><text fill="#000000" font-family="sans-serif" font-size="64" font-weight="bold" lengthAdjust="spacing" textLength="72" x="2802" y="7310.8125">18</text><text fill="#000000" font-family="sans-serif" font-size="64" lengthAdjust="spacing" textLength="896" x="2890" y="7310.8125">: select_unacknowledged_alert()</text><polygon fill="#181818" points="7708,7573.375,7748,7589.375,7708,7605.375,7724,7589.375" style="stroke:#181818;stroke-width:4.0;"/><line style="stroke:#181818;stroke-width:8.0;" x1="2774" x2="7732" y1="7589.375" y2="7589.375"/><text fill="#000000" font-family="sans-serif" font-size="64" font-weight="bold" lengthAdjust="spacing" textLength="72" x="2802" y="7567.3125">19</text><text fill="#000000" font-family="sans-serif" font-size="64" lengthAdjust="spacing" textLength="868" x="2890" y="7567.3125">: send_unacknowledged_alert()</text><polygon fill="#FFFFFF" points="5644,7749.375,5684,7765.375,5644,7781.375,5660,7765.375" style="stroke:#FFFFFF;stroke-width:4.0;"/><line style="stroke:#FFFFFF;stroke-width:8.0;" x1="1814" x2="5668" y1="7765.375" y2="7765.375"/><polygon fill="#FFFFFF" points="6386,7805.375,6426,7821.375,6386,7837.375,6402,7821.375" style="stroke:#FFFFFF;stroke-width:4.0;"/><line style="stroke:#FFFFFF;stroke-width:8.0;" x1="2754" x2="6410" y1="7821.375" y2="7821.375"/><polygon fill="#FFFFFF" points="6386,7861.375,6426,7877.375,6386,7893.375,6402,7877.375" style="stroke:#FFFFFF;stroke-width:4.0;"/><line style="stroke:#FFFFFF;stroke-width:8.0;" x1="2754" x2="6410" y1="7877.375" y2="7877.375"/><polygon fill="#FFFFFF" points="6386,7945.375,6426,7961.375,6386,7977.375,6402,7961.375" style="stroke:#FFFFFF;stroke-width:4.0;"/><line style="stroke:#FFFFFF;stroke-width:8.0;" x1="582" x2="6410" y1="7961.375" y2="7961.375"/><polygon fill="#FFFFFF" points="6386,8001.375,6426,8017.375,6386,8033.375,6402,8017.375" style="stroke:#FFFFFF;stroke-width:4.0;"/><line style="stroke:#FFFFFF;stroke-width:8.0;" x1="582" x2="6410" y1="8017.375" y2="8017.375"/><polygon fill="#FFFFFF" points="6386,8085.375,6426,8101.375,6386,8117.375,6402,8101.375" style="stroke:#FFFFFF;stroke-width:4.0;"/><line style="stroke:#FFFFFF;stroke-width:8.0;" x1="582" x2="6410" y1="8101.375" y2="8101.375"/><polygon fill="#FFFFFF" points="6992,8141.375,7032,8157.375,6992,8173.375,7008,8157.375" style="stroke:#FFFFFF;stroke-width:4.0;"/><line style="stroke:#FFFFFF;stroke-width:8.0;" x1="1814" x2="7016" y1="8157.375" y2="8157.375"/><polygon fill="#FFFFFF" points="6992,8225.375,7032,8241.375,6992,8257.375,7008,8241.375" style="stroke:#FFFFFF;stroke-width:4.0;"/><line style="stroke:#FFFFFF;stroke-width:8.0;" x1="2774" x2="7016" y1="8241.375" y2="8241.375"/><line style="stroke:#181818;stroke-width:8.0;" x1="2774" x2="2942" y1="8377.875" y2="8377.875"/><line style="stroke:#181818;stroke-width:8.0;" x1="2942" x2="2942" y1="8377.875" y2="8429.875"/><line style="stroke:#181818;stroke-width:8.0;" x1="2778" x2="2942" y1="8429.875" y2="8429.875"/><polygon fill="#181818" points="2818,8413.875,2778,8429.875,2818,8445.875,2802,8429.875" style="stroke:#181818;stroke-width:4.0;"/><text fill="#000000" font-family="sans-serif" font-size="64" font-weight="bold" lengthAdjust="spacing" textLength="72" x="2802" y="8355.8125">20</text><text fill="#000000" font-family="sans-serif" font-size="64" lengthAdjust="spacing" textLength="680" x="2890" y="8355.8125">: delay(configurable_ms)</text><polygon fill="#FFFFFF" points="6992,8469.875,7032,8485.875,6992,8501.875,7008,8485.875" style="stroke:#FFFFFF;stroke-width:4.0;"/><line style="stroke:#FFFFFF;stroke-width:8.0;" x1="2754" x2="7016" y1="8485.875" y2="8485.875"/><polygon fill="#FFFFFF" points="6992,8525.875,7032,8541.875,6992,8557.875,7008,8541.875" style="stroke:#FFFFFF;stroke-width:4.0;"/><line style="stroke:#FFFFFF;stroke-width:8.0;" x1="582" x2="7016" y1="8541.875" y2="8541.875"/><polygon fill="#FFFFFF" points="6992,8609.875,7032,8625.875,6992,8641.875,7008,8625.875" style="stroke:#FFFFFF;stroke-width:4.0;"/><line style="stroke:#FFFFFF;stroke-width:8.0;" x1="1814" x2="7016" y1="8625.875" y2="8625.875"/><polygon fill="#FFFFFF" points="6992,8665.875,7032,8681.875,6992,8697.875,7008,8681.875" style="stroke:#FFFFFF;stroke-width:4.0;"/><line style="stroke:#FFFFFF;stroke-width:8.0;" x1="1814" x2="7016" y1="8681.875" y2="8681.875"/><polygon fill="#FFFFFF" points="6992,8721.875,7032,8737.875,6992,8753.875,7008,8737.875" style="stroke:#FFFFFF;stroke-width:4.0;"/><line style="stroke:#FFFFFF;stroke-width:8.0;" x1="1814" x2="7016" y1="8737.875" y2="8737.875"/><polygon fill="#181818" points="1878,8858.375,1838,8874.375,1878,8890.375,1862,8874.375" style="stroke:#181818;stroke-width:4.0;"/><line style="stroke:#181818;stroke-width:8.0;" x1="1854" x2="2730" y1="8874.375" y2="8874.375"/><text fill="#000000" font-family="sans-serif" font-size="64" font-weight="bold" lengthAdjust="spacing" textLength="72" x="1902" y="8852.3125">21</text><text fill="#000000" font-family="sans-serif" font-size="64" lengthAdjust="spacing" textLength="644" x="1990" y="8852.3125">: simulation_complete()</text><polygon fill="#FFFFFF" points="1766,9034.375,1806,9050.375,1766,9066.375,1782,9050.375" style="stroke:#FFFFFF;stroke-width:4.0;"/><line style="stroke:#FFFFFF;stroke-width:8.0;" x1="582" x2="1790" y1="9050.375" y2="9050.375"/><!--SRC=[xLbRRzis57xNh-2o5nkOXwReXY702YYfdGfhbI9EjeTX46Zfs2PCaHf9sSj-_QYBROcYPDcBjwQe7moR_7YktpcaA9mgpj9u1i9PaWXGI4H8mN7aYh042nmZ2N-cm4BuX8KY8KamKoXb4GXA65Hmqn9tAtYQN7EX4GzB4guOI8aklx-qYFoef_02N4eM356OgmecWZbEgPfmfgRaRq2NFtNRr0rqGyL5DoItUm_vqIP52BxfXbGi-eIZYB05UltAWhlcVtNEvwhsyNjTWLXKl7dLAxgE3345zCPn79m515rS-Q0sNAm2Due98r89hCSl49Oe7t6IIjOlhXwzqJiibpEEHPI37Zq3SJEQaZYbM17ESeJ-Qq1SRpHc2qsUGar30cTpiaZ5NaGnOi1AmoUKRtAGFp7LA8N3LQ4Z_pas0HI4AkQpN-RqECQ41bCGQn8MfkOZZfC71etUQkVHrHKAgKvIC5CiU11aiG0Hx6BAC7sIH0w6MRZ96Yieexhxg-CNWJ5P6T3JZjQYTUamPigaqZO6SXVYgcWDtltEebwNK_cNJJgPG2stY6qk6YY4QX3ATP1WjHmwgFpKrZK6o-Hinmqrbk5oGQi14L3yT7RjkW9sdKz7bIU5FRz_kraI1N-yHTLv0JADeHxTqlmoBvJZAD2Xo_9nj5mpDPWgT3Fz5J6kq9phNfixKYeiI0UwFOY11WN-tKCmkNlqtnKXQ_XVvK1BY0p2vQiC9xAnZ8XxFygQCS2bHzceum2LWBAlPh2jiYmHF-Eo7PUirbFE4-JiG6NmtJpuYO28QARE0QjKGB26h9dsfQph7K5NrtDiXkvoqfcNTky-Nt7xALq4EjoGxnJwm87NkldY6Qr0Mgh2zOAnV-lvus1yVtztFwpXhG6trSc17BNKJVQfqBwAriwCzWr3WAOE2qeg5PtSQexhzRE_JfeE3-hYMh9sC7FTP7XPeklJcdTbLY3wW6T0qS_eUknxjtuTM66VFybIIfZKoWPiVp11Sm8qaiF6kjOirYRraSQSws2ZCMrPt1MsNg4xd9cNhwO6oKkvmOP7_nV_xhUJwV0TYWXUC2xrOLD-fSWNI95lNch7Q3EtV82gdD8bh44GzNIgfTj7ijFDtKfejJbFPoNC9vjgvyKHbXO2sWmjpYuHaOb-y1dW37oggSRPvJWpBOk_jeDZsy7s234jwqDl5pVtteDtutve0YiaoEyMYlfYKK3YM3SKdPGWfuE5kWSvKGCKDnSso05w693o1iH4v3smul5xx_QztQ036UYTXNu9_p9LMc0dcs5SJbZsZoFSFaIa-fL9SPMb7-p25UCR2j42ea2H6CJWXvYmLC7mit2hw_6fTSifTadJk-SfvWwo75VDRVjIQriwYpjdxasd5UI_AuJZ6TfwcEchj8VElYfrffqpxAxbjNaF0_uhNL3UhEwwQEzBXbRvjeRS8UZGBj0PYJQvbPkelOE7hn5DUlI- -BFLQBtLvrVwWt3xOcT68OWhppZFRL6zRvWPQTFMp6dP7frQKTZLFiDz-VylelcQOV-YAGXvd51GC7YszmocjOq4Q90E-py0]--></g></svg>